<svg width="40" height="40" viewBox="0 0 40 40" fill="none" xmlns="http://www.w3.org/2000/svg">
<path d="M33.3334 0H5.00008V5H1.66675V8.33333H5.00008V11.6667H1.66675V15H5.00008V18.3333H1.66675V21.6667H5.00008V25H1.66675V28.3333H5.00008V31.6667H1.66675V35H5.00008V40H33.3334C34.6595 40 35.9313 39.4732 36.8689 38.5355C37.8066 37.5979 38.3334 36.3261 38.3334 35V5C38.3334 3.67392 37.8066 2.40215 36.8689 1.46447C35.9313 0.526784 34.6595 0 33.3334 0ZM21.6667 6.66667C22.8205 6.66667 23.9483 7.00879 24.9076 7.64976C25.8669 8.29074 26.6145 9.20178 27.056 10.2677C27.4976 11.3336 27.6131 12.5065 27.388 13.638C27.1629 14.7696 26.6073 15.809 25.7915 16.6248C24.9757 17.4406 23.9363 17.9962 22.8048 18.2212C21.6732 18.4463 20.5003 18.3308 19.4344 17.8893C18.3685 17.4478 17.4575 16.7001 16.8165 15.7408C16.1755 14.7815 15.8334 13.6537 15.8334 12.5C15.8334 10.9529 16.448 9.46917 17.542 8.37521C18.6359 7.28125 20.1197 6.66667 21.6667 6.66667ZM31.6667 30H28.3334V26.6667C28.3334 26.2246 28.1578 25.8007 27.8453 25.4882C27.5327 25.1756 27.1088 25 26.6667 25H16.6667C16.2247 25 15.8008 25.1756 15.4882 25.4882C15.1757 25.8007 15.0001 26.2246 15.0001 26.6667V30H11.6667V26.6667C11.6667 25.3406 12.1935 24.0688 13.1312 23.1311C14.0689 22.1934 15.3407 21.6667 16.6667 21.6667H26.6667C27.9928 21.6667 29.2646 22.1934 30.2023 23.1311C31.14 24.0688 31.6667 25.3406 31.6667 26.6667V30ZM19.1667 12.5C19.1667 12.0055 19.3134 11.5222 19.5881 11.1111C19.8628 10.7 20.2532 10.3795 20.71 10.1903C21.1669 10.0011 21.6695 9.95157 22.1545 10.048C22.6394 10.1445 23.0849 10.3826 23.4345 10.7322C23.7841 11.0819 24.0222 11.5273 24.1187 12.0123C24.2152 12.4972 24.1657 12.9999 23.9764 13.4567C23.7872 13.9135 23.4668 14.304 23.0557 14.5787C22.6446 14.8534 22.1612 15 21.6667 15C21.0037 15 20.3678 14.7366 19.899 14.2678C19.4301 13.7989 19.1667 13.163 19.1667 12.5Z" fill="#1C274D"/>
</svg>
