<svg width="40" height="40" viewBox="0 0 40 40" fill="none" xmlns="http://www.w3.org/2000/svg">
<g clip-path="url(#clip0_9842_915)">
<path d="M25.1517 26.6617C36.1033 26.6067 40 20.8067 40 15.8334C40 13.0384 38.02 10.7 35.3917 10.135C35.6183 9.49171 35.815 8.90004 35.9467 8.45171C36.535 6.46338 36.155 4.36338 34.9033 2.68838C33.6267 0.981709 31.675 0.00170898 29.5467 0.00170898H10.4517C8.32333 0.00170898 6.37 0.981709 5.09333 2.68838C3.84167 4.36338 3.46167 6.46504 4.05 8.45171C4.18333 8.90004 4.37833 9.49171 4.60667 10.1367C1.97833 10.7017 0 13.04 0 15.835C0 20.8084 3.89833 26.6084 14.8483 26.6634C14.9417 27.1667 15 27.68 15 28.2034V33.335C15 36.3784 12.44 36.655 11.6667 36.6684H10C9.07833 36.6684 8.33333 37.4134 8.33333 38.335C8.33333 39.2567 9.07833 40.0017 10 40.0017H30C30.9217 40.0017 31.6667 39.2567 31.6667 38.335C31.6667 37.4134 30.9217 36.6684 30 36.6684H28.3467C27.56 36.655 25 36.3784 25 33.335V28.2017C25 27.68 25.0583 27.1667 25.1517 26.6634V26.6617ZM34.0867 13.3167C34.115 13.3167 34.1383 13.3334 34.1667 13.3334C35.545 13.3334 36.6667 14.455 36.6667 15.8334C36.6667 19.2234 33.985 22.8284 26.6067 23.2834C26.975 22.785 27.3967 22.3234 27.8767 21.915C30.775 19.4517 32.765 16.16 34.0867 13.3167ZM3.33333 15.8334C3.33333 14.455 4.455 13.3334 5.83333 13.3334C5.86167 13.3334 5.885 13.3184 5.91167 13.3167C7.235 16.16 9.225 19.4517 12.1233 21.915C12.6033 22.3234 13.025 22.7834 13.3933 23.2834C6.015 22.8284 3.33333 19.2234 3.33333 15.8334ZM16.32 16.2717C15.88 15.9684 15.695 15.4084 15.87 14.9017L16.735 12.225L14.4583 10.5584C13.9133 10.1584 13.795 9.39338 14.195 8.84838C14.425 8.53504 14.7917 8.34838 15.18 8.34838H17.9817L18.8333 5.69338C19.0483 5.04838 19.745 4.70171 20.39 4.91671C20.7567 5.03838 21.045 5.32671 21.1667 5.69338L22.0167 8.34838H24.8183C25.4933 8.34838 26.0417 8.89504 26.0417 9.57171C26.0417 9.96338 25.855 10.33 25.54 10.56L23.2633 12.2267L24.1283 14.9034C24.335 15.5467 23.9817 16.2367 23.3367 16.445C22.9633 16.565 22.555 16.4984 22.2383 16.2667L20 14.62L17.76 16.265C17.3333 16.5834 16.75 16.585 16.32 16.2717Z" fill="#1C274D"/>
</g>
<defs>
<clipPath id="clip0_9842_915">
<rect width="40" height="40" fill="white"/>
</clipPath>
</defs>
</svg>
