<svg width="41" height="41" viewBox="0 0 41 41" fill="none" xmlns="http://www.w3.org/2000/svg">
<g clip-path="url(#clip0_9842_925)">
<path fill-rule="evenodd" clip-rule="evenodd" d="M39.7 20.9547C39.7 19.5365 39.5727 18.1729 39.3364 16.8638H20.5V24.6001H31.2636C30.8 27.1001 29.3909 29.2183 27.2727 30.6365V35.6547H33.7364C37.5182 32.1729 39.7 27.0456 39.7 20.9547Z" fill="#4285F4"/>
<path fill-rule="evenodd" clip-rule="evenodd" d="M20.4999 40.4998C25.8999 40.4998 30.4272 38.7089 33.7363 35.6544L27.2727 30.6362C25.4817 31.8362 23.1908 32.5453 20.4999 32.5453C15.2908 32.5453 10.8817 29.0271 9.30901 24.2998H2.6272V29.4816C5.91811 36.018 12.6817 40.4998 20.4999 40.4998Z" fill="#34A853"/>
<path fill-rule="evenodd" clip-rule="evenodd" d="M9.30909 24.2999C8.90909 23.0999 8.68182 21.8181 8.68182 20.4999C8.68182 19.1817 8.90909 17.8999 9.30909 16.6999V11.5181H2.62727C1.27273 14.2181 0.5 17.2726 0.5 20.4999C0.5 23.7272 1.27273 26.7817 2.62727 29.4817L9.30909 24.2999Z" fill="#FBBC05"/>
<path fill-rule="evenodd" clip-rule="evenodd" d="M20.4999 8.45455C23.4363 8.45455 26.0727 9.46364 28.1454 11.4455L33.8817 5.70909C30.4181 2.48182 25.8908 0.5 20.4999 0.5C12.6817 0.5 5.91811 4.98182 2.6272 11.5182L9.30901 16.7C10.8817 11.9727 15.2908 8.45455 20.4999 8.45455Z" fill="#EA4335"/>
</g>
<defs>
<clipPath id="clip0_9842_925">
<rect width="40" height="40" fill="white" transform="translate(0.5 0.5)"/>
</clipPath>
</defs>
</svg>
