<svg width="40" height="40" viewBox="0 0 40 40" fill="none" xmlns="http://www.w3.org/2000/svg">
<g clip-path="url(#clip0_9842_910)">
<path d="M21.6667 23.3334V26.6667H18.3333V23.3334H0V40H40V23.3334H21.6667Z" fill="#1C274D"/>
<path d="M40 20V11.6667C40 10.3406 39.4732 9.06881 38.5355 8.13113C37.5979 7.19345 36.3261 6.66667 35 6.66667H30V3.33333C30 2.44928 29.6488 1.60143 29.0237 0.976311C28.3986 0.35119 27.5507 0 26.6667 0L13.3333 0C12.4493 0 11.6014 0.35119 10.9763 0.976311C10.3512 1.60143 10 2.44928 10 3.33333V6.66667H5C3.67392 6.66667 2.40215 7.19345 1.46447 8.13113C0.526784 9.06881 0 10.3406 0 11.6667L0 20H40ZM13.3333 3.33333H26.6667V6.66667H13.3333V3.33333Z" fill="#1C274D"/>
</g>
<defs>
<clipPath id="clip0_9842_910">
<rect width="40" height="40" fill="white"/>
</clipPath>
</defs>
</svg>
